<svg width="100%" height="100%" viewBox="0 0 800 600" version="1.1" xmlns="http://www.w3.org/2000/svg">
  <image x="10" y="100" href="breadboard.svg" />
  <g transform="rotate(180 0 0 ) translate(-192 -252)">
    <image x="0" y="0" href="NodeMCU.svg" />
  </g>
  <image x="185.5" y="55" href="HC-SR04.svg" />
  <image x="252.5" y="320" href="LEDBar.svg" />
  <g transform="translate(252.5 345)" class="wire1" stroke="darkred" fill="darkred">
    <circle class="wire" cx="0" cy="0" r="2"  stroke-width="3"></circle>
    <path class="wire" stroke-linecap="round" stroke-width="5" fill="none"
          d="M 0 0 
          l -65 0 
          q -10,0 -10,-10
          l 0, -40
          "></path>
    <circle class="wire" cx="-75" cy="-50" r="2" stroke-width="3"></circle>
  </g>
  <g transform="translate(252.5 325)" class="wire1" stroke="navy" fill="navy"> 
    <circle class="wire" cx="0" cy="0" r="2" stroke-width="3" ></circle>
    <path class="wire" stroke-linecap="round" stroke-width="5" fill="none" d="M 0 0 
          l -45 0 
          q -10,0 -10,-10
          l 0, -30
          "></path>
    <circle class="wire" cx="-55" cy="-40" r="2" stroke-width="3"></circle>
  </g>
  <g transform="translate(252.5 335)" class="wire1" stroke="green" fill="green">
    <circle class="wire" cx="0" cy="0" r="2" stroke-width="3"></circle>
    <path class="wire" stroke-linecap="round" stroke-width="5" fill="none" d="M 0 0 
          l -55 0 
          q -10,0 -10,-10
          l 0, -40
          q 0,-10 -10,-10
          l -38,0
          q -10,0 -10,-10
          l 0, -7
          "></path>
    <circle class="wire" cx="-123" cy="-79" r="2" stroke-width="3"></circle>
  </g>
  <g transform="translate(120 295)" class="wire1" stroke="darkred" fill="darkred">
    <circle class="wire" cx="0" cy="0" r="2" stroke-width="3"></circle>
    <path class="wire" stroke-linecap="round" stroke-width="5" fill="none" d="M 0 0 
          l 0, -36  
          "></path>
    <circle class="wire" cx="0" cy="-39" r="2" stroke-width="3"></circle>
  </g>
  <g transform="translate(110 285)" class="wire1" stroke="navy" fill="navy">
    <circle class="wire" cx="0" cy="0" r="2" stroke-width="3"></circle>
    <path class="wire" stroke-linecap="round" stroke-width="5" fill="none" d="M 0 0 
          l 0, -26  
          "></path>
    <circle class="wire" cx="0" cy="-29" r="2" stroke-width="3"></circle>
  </g>
  <g transform="translate(283 170)" class="wire1" stroke="orange" fill="orange">
    <circle class="wire" cx="0" cy="0" r="2" stroke-width="3"></circle>
    <path class="wire" stroke-linecap="round" stroke-width="5" fill="none" d="M 0 0 
          l -40 0
          q -5,0 -5,5
          l 0 84
          q 0,5 -5,5
          l -89,0 
          q -5,0 -5,-5
          "></path>
    <circle class="wire" cx="-144" cy="86" r="2" stroke-width="3"></circle>
  </g>
  <g transform="translate(273 160)" class="wire1" stroke="purple" fill="purple">
    <circle class="wire" cx="0" cy="0" r="2" stroke-width="3"></circle>
    <path class="wire" stroke-linecap="round" stroke-width="5" fill="none" d="M 0 0 
          l -40 0
          q -5,0 -5,5
          l 0 86
          q 0,5 -5,5
          l -72,0 
          "></path>
    <circle class="wire" cx="-124" cy="96" r="2" stroke-width="3"></circle>
  </g>
  <g transform="translate(264 295)" class="wire1" stroke="darkred" fill="darkred">
    <circle class="wire" cx="0" cy="0" r="2" stroke-width="3"></circle>
    <path class="wire" stroke-linecap="round" stroke-width="5" fill="none" d="M 0 0 
          l 0, -106  
          "></path>
    <circle class="wire" cx="0" cy="-106" r="2" stroke-width="3"></circle>
  </g>
  <g transform="translate(293 285)" class="wire1" stroke="navy" fill="navy">
    <circle class="wire" cx="0" cy="0" r="2" stroke-width="3"></circle>
    <path class="wire" stroke-linecap="round" stroke-width="5" fill="none" d="M 0 0 
          l 0, -106  
          "></path>
    <circle class="wire" cx="0" cy="-106" r="2" stroke-width="3"></circle>
  </g>
</svg>